<?xml version="1.0" standalone="no"?>
<!DOCTYPE svg PUBLIC "-//W3C//DTD SVG 20010904//EN"
 "http://www.w3.org/TR/2001/REC-SVG-20010904/DTD/svg10.dtd">
<svg version="1.0" xmlns="http://www.w3.org/2000/svg"
 width="55.000000pt" height="54.000000pt" viewBox="0 0 55.000000 54.000000"
 preserveAspectRatio="xMidYMid meet">

<g transform="translate(0.000000,54.000000) scale(0.100000,-0.100000)"
fill="#000000" stroke="none">
<path d="M91 483 c-47 -24 -72 -62 -78 -115 -7 -65 18 -106 144 -231 l109
-107 121 122 c95 96 123 132 132 164 20 73 -15 143 -84 170 -52 19 -100 13
-139 -17 l-26 -20 -31 22 c-42 30 -105 35 -148 12z m106 -14 c15 -6 38 -20 50
-31 l22 -21 31 26 c41 35 89 43 132 23 35 -17 64 -56 68 -91 7 -67 2 -76 -117
-197 l-117 -118 -103 102 c-106 106 -133 145 -133 195 0 40 35 92 73 108 39
17 57 18 94 4z"/>
</g>
</svg>
