<?xml version="1.0" standalone="no"?>
<!DOCTYPE svg PUBLIC "-//W3C//DTD SVG 20010904//EN"
 "http://www.w3.org/TR/2001/REC-SVG-20010904/DTD/svg10.dtd">
<svg version="1.0" xmlns="http://www.w3.org/2000/svg"
 width="55.000000pt" height="54.000000pt" viewBox="0 0 55.000000 54.000000"
 preserveAspectRatio="xMidYMid meet">

<g transform="translate(0.000000,54.000000) scale(0.100000,-0.100000)"
fill="#000000" stroke="none">
<path d="M345 516 c-35 -16 -92 -73 -82 -83 4 -4 22 7 40 25 60 58 123 63 172
14 58 -58 46 -118 -39 -201 -56 -53 -69 -61 -103 -61 -21 0 -53 9 -72 21 -39
24 -54 17 -24 -12 22 -23 87 -35 128 -25 32 8 131 99 151 138 33 64 7 146 -58
179 -43 22 -71 23 -113 5z"/>
<path d="M175 346 c-40 -18 -142 -126 -151 -160 -10 -43 3 -97 33 -128 55 -58
140 -55 202 6 47 48 32 58 -19 12 -34 -30 -47 -36 -86 -36 -39 0 -51 5 -80 34
-59 59 -45 114 49 204 50 47 60 52 100 52 30 0 53 -7 71 -21 30 -24 47 -19 25
7 -16 20 -70 44 -96 44 -10 -1 -31 -7 -48 -14z"/>
</g>
</svg>
